Patient4_TMGait_0pt5_01_right_34_EMG.mot
version=1
nRows=40
nColumns=33
inDegrees=no
endheader
time	1LAddLong	2LGlutMax	3LGlutMed	4LIliopsoas	5LSemiMemb	6LBicFemLong	7LRecFem	8LVastMed	9LVastLat	10LGasMed	11LTibAnt	12lTibPost	13LPeroneusLong	14LSol	15LExtDigLong	16LFlexDigLong	17RAddLong	18RGlutMax	19RGlutMed	20RIliopsoas	21RSemiMemb	22RBicFemLong	23RRecFem	24RVastMed	25RVastLat	26RGasMed	27RTibAnt	28RTibPost	29RPeroneusLong	30RSol	31RExtDigLong	32RFlexDigLong
46.008	0.003204	0.086823	-0.062103	0.009155	-0.024261	0.28427	-0.020294	0.005646	0.033569	0.089722	-0.06424	0.006104	-0.5806	-0.087128	-0.34286	0.009155	-0.033569	-0.0383	-0.13031	-0.047302	-0.001221	0.032959	0.17746	-0.057068	0.010834	0.009918	0.31021	-0.005646	-0.002289	0.007935	-0.004578	-0.008392
46.009	-0.046997	0.087433	0.059052	-0.007782	0.019684	0.31311	-0.005341	-0.007629	0.045929	0.24948	-0.057373	-0.000458	-0.7634	-0.040283	-0.036163	-0.002441	-0.03479	-0.007019	-0.18509	-0.013428	-0.01297	0.016785	0.21957	-0.06897	0.01297	0.006866	0.20584	-0.009155	-0.098419	-0.071259	-0.00351	-0.009766
46.01	0.002136	0.06958	0.098724	0.009766	0.010681	0.38986	0.011444	0.002289	0.027313	0.31982	-0.096741	0.003052	-0.02182	-0.11292	0.02594	-0.002136	-0.015717	-0.028534	-0.21484	0.005188	-0.007324	-0.010681	0.24643	-0.047607	0.010681	-0.001221	0.11536	-0.005798	-0.060272	-0.16556	0.000305	-0.007782
46.011	0.012512	0.060577	0.047302	0.019684	-0.014801	0.48843	0.027008	0.000153	0.02655	0.41702	-0.072784	0	0.33829	-0.20477	-0.072327	0.000458	-0.00473	-0.019836	-0.24551	0.054321	-0.001831	-0.01297	0.16266	-0.029449	-0.009766	-0.004272	-0.08316	-0.007172	-0.12665	-0.16129	-0.001068	-0.018921
46.012	-0.012665	0.081177	-0.040741	0.02243	-0.005188	-0.012665	0.010223	-0.004883	0.049133	0.44342	-0.065765	0.002289	0.007935	-0.16022	-0.088959	-0.007172	0.0177	-0.051422	-0.26169	0.02533	0.009155	-0.020142	0.15579	-0.061951	-0.005493	-0.002289	-0.26047	-0.001068	-0.17456	-0.13534	-0.006866	-0.00885
46.013	0.00412	0.024567	-0.075378	0.01358	0.043793	-0.35248	-0.003357	-0.001526	0.056915	0.27344	-0.024261	-0.005493	-0.27298	-0.078125	0.041046	0.007782	0.006561	-0.074463	-0.18387	0.008392	0.011139	-0.049744	0.1326	-0.097656	-0.011749	-0.002747	0.00473	-0.001678	0.065002	-0.19455	0.001221	-0.00824
46.014	0.023651	0.012512	-0.080261	0.032043	0.079193	-0.18463	0.034332	-0.010681	0.057831	-0.33356	-0.03006	0.001678	0.16693	-0.12146	0.092926	0.003815	-0.003052	-0.050049	-0.070343	0.011292	-0.010376	-0.055084	0.17654	-0.096893	-0.013123	0.005646	0.44266	-0.00473	0.19104	-0.14847	0.000153	-0.00412
46.015	0.027466	0.058899	-0.13412	0.016174	0.011139	-0.37521	0.037079	-0.008392	0.077362	-0.32196	-0.021973	-0.004578	0.031128	-0.22064	0.040131	-0.001526	-0.015869	-0.005341	-0.17685	-0.010223	-0.057983	-0.08606	0.12848	-0.14572	-0.022583	0.001526	0.69855	-0.003357	0.02533	-0.050049	-0.001526	-0.007629
46.016	0.023651	0.026398	0.002594	-0.004883	0.008698	-0.5043	0.043793	-0.007935	0.053406	-0.46417	0.000763	-0.006714	0.019379	-0.26642	0.034943	0.002594	0.011139	-0.035248	-0.096588	0.002441	-0.17105	-0.094147	0.12497	-0.12528	-0.016785	-0.007324	0.20599	-0.002594	-0.14526	-0.039673	-0.007935	-0.01358
46.017	0.020905	0.009918	0.092926	-0.020905	0.041504	-0.45532	0.053558	0.004578	0.036163	-0.2269	-0.015411	0	0.15182	-0.1622	0.11963	0.004883	0.032959	-0.07782	0.077667	-0.030365	-0.29358	-0.094757	0.13306	-0.1326	-0.011292	-0.010223	-0.026703	-0.00824	-0.31799	0.042267	-0.007324	-0.00946
46.018	0.014191	0.035858	0.037689	-0.001373	0.031281	-0.25284	0.10712	0.016479	0.004578	-0.02533	-0.014954	-0.00061	-0.043182	-0.046692	0.13855	0.012512	0.042267	-0.036316	0.026093	-0.002136	-0.22064	-0.079956	0.14008	-0.16769	-0.013275	-0.010681	-0.35645	-0.003204	-0.32211	0.061951	0	-0.007172
46.019	0.010223	0.018158	0.048981	0.007935	0.020752	-0.15915	0.12756	0.012207	-0.02121	0.018463	-0.008545	0.008698	-0.009918	0.053253	0.10834	0.00473	0.002441	-0.042419	-0.19424	0.016022	0.066833	0	0.1088	-0.10529	0.022736	-0.006561	-0.21881	0.000458	0.027466	0.052795	-0.002594	-0.000305
46.02	0.00351	0.032196	0.004883	0.005035	0.036163	-0.084534	0.079498	0.018921	-0.041656	0.034485	0.040436	0.006256	0.14252	0.11948	0.079346	0.002594	-0.054779	-0.077667	-0.25345	0.024109	0.37308	0.06012	0.12116	-0.087433	0.012054	-0.001526	0.25711	-0.001984	0.15137	0.033264	0.003204	-0.012207
46.021	0.01358	0.01358	0.009918	0.008392	0.038147	-0.030212	0.024109	0.011292	-0.023041	0.25421	0.077057	-0.00351	0.004578	0.10162	-0.009003	-0.007019	-0.041962	-0.049744	-0.22629	0.016785	0.28168	0.02594	0.12405	-0.073395	0.008545	-0.001831	0.40939	-0.005035	-0.17761	0.10864	0.00061	-0.00473
46.022	0.016937	0.044098	0.011902	-0.004883	0.034027	0.061035	0.010529	-0.00946	0.01297	0.50095	0.10254	-0.005341	-0.10788	0.04364	0.012817	0.002747	-0.025482	-0.010223	-0.16647	0.00885	0.099182	0.002441	0.092621	-0.05249	0.000458	-0.005951	0.16815	-0.002747	-0.17181	0.081177	-0.001068	-0.009766
46.023	0.00061	0.038452	-0.030823	0.011292	0.025024	0.082397	0.010834	-0.002899	0.033875	0.098419	0.11215	-0.005341	-0.1561	-0.003967	0.028381	-0.002594	-0.016479	-0.037689	-0.11246	0.02533	0.052795	0.028839	0.083008	-0.076599	0.025787	-0.00061	-0.20218	-0.00824	0.37552	0.041199	-0.00061	-0.006714
46.024	-0.002899	0.036316	-0.037231	0.00824	0.013733	0.04364	-0.08255	0.013428	0.005493	-0.45593	-0.12528	0.000153	-0.16296	0.081482	0.030823	-0.016327	0.000763	-0.06073	-0.087433	0.019836	-0.027161	0.075378	0.09964	-0.062561	0.004578	-0.016174	-0.28503	-0.008545	0.15671	0.068512	-0.00061	-0.016785
46.025	-0.022888	0.037689	-0.016937	0.001984	0.024414	0.041199	-0.15182	0.016937	-0.011597	-0.26962	-0.13336	0.004883	0.014801	0.14847	0.005951	-0.001984	0.019531	-0.007172	-0.077667	0.034332	-0.060883	0.09613	0.12039	-0.093231	0.009308	-0.007935	-0.24338	-0.00473	0.089264	0.029602	0.000153	-0.009155
46.026	0	0.011139	0.061493	-0.000916	0.009155	-0.025635	-0.064087	0.017548	0.056915	-0.15503	-0.042725	0.002899	-0.048523	-0.025635	-0.01236	-0.015106	0.012512	-0.023499	-0.12482	0.031281	0.060425	0.080261	0.12543	-0.061646	0.019226	-0.001526	-0.16907	-0.005951	0.25726	0.054932	-0.003967	-0.006256
46.027	0.009918	0.022278	0.029602	0.016022	0.004425	-0.010681	0.013733	0.000153	0.059662	-0.11719	-0.10407	0.01297	-0.22964	-0.075836	-0.054626	-0.006561	0.018768	-0.022583	-0.26184	0.039368	0.05188	0.040894	0.075073	-0.067749	0.013733	0.000458	-0.18341	-0.002899	0.34683	0.078888	0.001526	-0.013885
46.028	0.005341	0.03067	-0.012817	0.018921	0.016022	0.000916	0.056305	-0.010071	-0.037384	-0.092468	-0.16739	0.020142	0.087433	-0.035095	0.087433	-0.002594	0.010376	-0.03891	-0.16937	-0.008392	0.014038	-0.063629	0.054932	-0.067902	0.027618	-0.008545	-0.18936	-0.005646	0.22858	0.069885	0.001678	-0.008392
46.029	0.007782	0.009918	-0.045776	0.015869	0.019836	-0.000153	0.021515	-0.010986	0.031128	0.043335	-0.068512	-0.002289	0.48614	0.004425	0.21698	0.011902	0.005341	-0.034485	-0.17044	0.00824	0.007629	-0.075531	0.037231	-0.080109	0.044708	-0.002594	-0.20279	-0.001831	0.22064	0.054016	-0.001068	-0.009918
46.03	0.010681	0.025024	-0.061493	0.019531	0.011597	0.029755	0.05661	-0.010529	0.075378	0.18051	-0.016937	-0.004425	-0.033875	0.065918	-0.11292	-0.003815	-0.017548	-0.045776	-0.25833	0.008698	0.010834	-0.042725	0.040588	-0.095673	0.029449	0.000153	-0.11246	-0.001373	0.15121	0.050507	-0.001526	-0.018005
46.031	0.005188	0.017548	0.007324	0.009308	0.015869	0.018463	0.10025	-0.009918	0.097656	0.19501	0.05127	-0.003357	-0.33203	0.13763	-0.18463	0.000305	-0.016785	-0.048523	-0.14267	0.052643	0.012512	-0.12329	0.068817	-0.085602	0.027161	0.001373	0.038452	-0.001678	0.098724	-0.005341	-0.002289	-0.004883
46.032	0.005341	0.006409	-0.012665	0.007477	0.009003	-0.081787	0.091095	-0.004578	0.068665	0.14694	0.12283	-0.003357	-0.29297	0.086517	-0.17395	0.003662	-0.026703	0.010376	0.12009	0.025024	-0.010529	-0.17029	0.039063	-0.06546	0.037231	-0.006104	0.22797	0.005341	0.12116	-0.037537	0.001526	0.003967
46.033	0.000458	0.010681	-0.059662	0.006866	0.014343	-0.025635	0.077209	-0.001984	0.05188	0.031128	0.076599	-0.006866	-0.087128	-0.00061	-0.12634	0.007324	-0.020447	-0.02121	0.13428	-0.029144	-0.00946	-0.14496	0.085297	-0.097198	0.029755	-0.009613	0.29923	-0.001373	0.12329	-0.063171	-0.000763	-0.003204
46.034	0.006409	0.040131	-0.02182	-0.007019	0.011749	0.05188	0.060577	0.005035	0.03891	-0.19165	0.04303	-0.002289	0.005798	0.019073	-0.032349	0.008392	-0.009766	-0.002594	-0.11093	-0.02243	-0.009766	-0.071716	0.051117	-0.082703	0.04776	-0.008545	0.15396	-0.002594	0.12451	-0.055695	-0.001678	-0.006256
46.035	0.011597	-0.00412	-0.006409	0.007019	0.019226	0.017853	0.087128	-0.005493	0.028839	-0.30243	0.033112	-0.002441	-0.10056	0.13657	0.11917	0.000305	-0.011749	-0.032959	-0.27817	-0.018158	-0.020294	-0.076904	0.068665	-0.089111	0.05188	-0.008545	0.082397	-0.008545	0.0383	-0.059052	-0.002136	-0.007324
46.036	0.005951	0.010071	0.052795	0.011139	0.020599	-0.010529	0.096436	-0.002899	0.032349	-0.2417	0.030518	-0.002136	-0.17044	0.12039	0.1442	-0.000305	0.003357	-0.060425	-0.26718	-0.02121	-0.005493	-0.068054	0.002594	-0.083771	0.031281	-0.007019	0.11139	0.005798	-0.072021	-0.058441	0.000916	-0.013885
46.037	0.011139	0.018921	0.080719	0.021362	-0.001068	-0.017395	0.066986	0.007324	0.020294	0.002289	0.036469	-0.00412	0.15335	0.068054	0.088043	-0.007629	0.004272	-0.010986	-0.27115	0.01709	0.004425	-0.082703	0.014954	-0.085449	0.029602	-0.015259	0.010986	-0.002136	-0.13565	-0.077362	0.001373	-0.005341
46.038	0.008545	0.00824	0.086975	0.010529	0.011597	-0.000458	0.04776	0.004883	0.036774	0.10529	0.041046	-0.001678	-0.09903	0.029755	-0.031128	-0.00061	-0.021362	-0.010529	-0.21774	-0.006256	0.01358	-0.083008	-0.003662	-0.12329	0.039978	-0.005798	-0.16159	-0.001678	-0.040588	-0.10788	-0.002747	0.001373
46.039	0.004578	0.023804	0.050049	0.011139	0.017395	0.046082	0.009766	0.011444	0.043945	0.040894	0.07431	-0.000916	-0.22095	0.006409	-0.090179	0.000305	-0.022583	-0.00885	-0.2005	0.014038	0.051117	0.099182	0.000305	-0.12009	0.031433	-0.012207	-0.10422	-0.002289	0.029449	-0.076141	-0.002441	-0.002441
46.04	0.00885	0.031586	0.08728	0.014191	0.017242	0.032654	-0.016022	0.01297	0.063019	-0.046539	0.03006	-0.000305	0.159	0.001373	-0.057983	-0.009003	-0.0354	0.037384	-0.06485	0.041656	0.033569	0.15717	0.021515	-0.11902	0.035706	-0.010986	-0.088501	-0.002136	-0.007019	-0.030823	-0.002899	-0.010986
46.041	0.011292	0.035248	0.081024	0.011292	0.020142	0.12161	0.002899	0.01236	0.10376	-0.057526	-0.10132	0.015106	0.38849	0.043182	0.022583	-0.000763	-0.035706	0.045013	-0.089264	0.01236	-0.13245	0.14297	0.010223	-0.090485	0.030823	-0.0177	-0.024109	-0.002899	-0.018768	-0.035858	-0.003357	-0.014801
46.042	0.006409	0.026245	0.036621	0.002899	0.018616	0.2446	0.064087	0.005798	0.05127	-0.025177	-0.159	0.015717	0.20233	0.11978	0.091553	-0.012665	-0.012512	0.030212	-0.18814	0.031433	-0.19974	0.14404	0	-0.083313	0.016632	-0.007019	-0.073547	-0.000458	-0.021667	-0.000153	-0.010681	-0.015411
46.043	0.000153	-0.016479	0.025024	0.009918	0.008392	0.16968	0.079193	0.003967	0.050812	0.007477	-0.09201	0.010681	-0.15656	0.052643	0.15289	0.00061	0.018005	0.061188	-0.21301	0.01297	-0.04303	0.056458	-0.014648	-0.13657	0.022583	-0.008698	-0.11276	-0.002899	0.13962	-0.030365	-0.001526	-0.017242
46.044	-0.001831	-0.035248	0.03479	0.004578	0.001984	-0.029449	0.11047	0.008087	0.02594	0.001831	-0.050049	0.007782	-0.28412	0.076447	0.12741	0.000458	0.045471	0.057068	-0.09613	-0.00061	0.001678	0.043945	0.01358	-0.10254	0.034485	-0.007782	0.003204	-0.00412	0.06958	-0.063324	0.005493	-0.010376
46.045	0.016174	-0.035553	0.001068	0.009918	-0.000305	-0.37247	0.094147	0.011749	-0.067749	0.012207	0.020447	0.003204	-0.08316	0.069885	-0.043945	-0.009918	0.071564	0.049133	-0.13596	0.020905	-0.096893	0.049286	-0.022125	-0.13412	0.032959	-0.013428	0.16815	-0.002289	-0.36423	-0.076294	-0.001831	-0.018005
46.046	0.005951	-0.028534	-0.040436	0.007629	0.012665	-0.34241	0.12161	0.009918	-0.011902	0.02182	0.04837	0.008698	0.099945	0.007629	-0.18204	0.00061	0.047913	0.09201	-0.1738	-0.001831	-0.21332	0.052948	-0.005798	-0.11108	0.028839	-0.016785	0.16861	-0.001678	-0.14069	-0.059814	-0.002136	-0.010223
46.047	0.012512	0.014496	-0.12131	0.006561	0.014038	-0.071564	0.11963	0.005035	0.03006	0.050201	0.2005	-0.00061	0.063629	-0.023956	-0.16983	-0.001678	0.002441	0.11292	-0.16892	-0.014038	-0.24307	0.078125	0.005188	-0.096893	0.036926	-0.016022	0.11429	-0.009003	0.14877	-0.047455	-0.002594	-0.019531
